HIERARCHY
ROOT Hips
{
	OFFSET 0.00000 0.00000 0.00000
	CHANNELS 6 Xposition Yposition Zposition Zrotation Yrotation Xrotation 
	JOINT LHipJoint
	{
		OFFSET 0 0 0
		CHANNELS 3 Zrotation Yrotation Xrotation
		JOINT LeftUpLeg
		{
			OFFSET 1.62329 -1.80800 0.67318
			CHANNELS 3 Zrotation Yrotation Xrotation
			JOINT LeftLeg
			{
				OFFSET 2.57139 -7.06484 0.00000
				CHANNELS 3 Zrotation Yrotation Xrotation
				JOINT LeftFoot
				{
					OFFSET 2.52017 -6.92413 0.00000
					CHANNELS 3 Zrotation Yrotation Xrotation
					JOINT LeftToeBase
					{
						OFFSET 0.23295 -0.64001 2.10214
						CHANNELS 3 Zrotation Yrotation Xrotation
						End Site
						{
							OFFSET 0.00000 -0.00000 1.10139
						}
					}
				}
			}
		}
	}
	JOINT RHipJoint
	{
		OFFSET 0 0 0
		CHANNELS 3 Zrotation Yrotation Xrotation
		JOINT RightUpLeg
		{
			OFFSET -1.48061 -1.80800 0.67318
			CHANNELS 3 Zrotation Yrotation Xrotation
			JOINT RightLeg
			{
				OFFSET -2.63258 -7.23296 0.00000
				CHANNELS 3 Zrotation Yrotation Xrotation
				JOINT RightFoot
				{
					OFFSET -2.54779 -7.00000 0.00000
					CHANNELS 3 Zrotation Yrotation Xrotation
					JOINT RightToeBase
					{
						OFFSET -0.23067 -0.63376 2.12161
						CHANNELS 3 Zrotation Yrotation Xrotation
						End Site
						{
							OFFSET -0.00000 -0.00000 1.11000
						}
					}
				}
			}
		}
	}
	JOINT LowerBack
	{
		OFFSET 0 0 0
		CHANNELS 3 Zrotation Yrotation Xrotation
		JOINT Spine
		{
			OFFSET -0.02108 2.07573 -0.16981
			CHANNELS 3 Zrotation Yrotation Xrotation
			JOINT Spine1
			{
				OFFSET 0.05070 2.08439 -0.03141
				CHANNELS 3 Zrotation Yrotation Xrotation
				JOINT Neck
				{
					OFFSET 0 0 0
					CHANNELS 3 Zrotation Yrotation Xrotation
					JOINT Neck1
					{
						OFFSET -0.10731 1.60408 0.31370
						CHANNELS 3 Zrotation Yrotation Xrotation
						JOINT Head
						{
							OFFSET 0.08411 1.65679 -0.30822
							CHANNELS 3 Zrotation Yrotation Xrotation
							End Site
							{
								OFFSET 0.03911 1.69149 -0.14146
							}
						}
					}
				}
				JOINT LeftShoulder
				{
					OFFSET 0 0 0
					CHANNELS 3 Zrotation Yrotation Xrotation
					JOINT LeftArm
					{
						OFFSET 3.52315 0.73219 -0.54694
						CHANNELS 3 Zrotation Yrotation Xrotation
						JOINT LeftForeArm
						{
							OFFSET 5.32462 -0.00000 -0.00000
							CHANNELS 3 Zrotation Yrotation Xrotation
							JOINT LeftHand
							{
								OFFSET 3.48402 -0.00000 -0.00000
								CHANNELS 3 Zrotation Yrotation Xrotation
								JOINT LeftFingerBase
								{
									OFFSET 0 0 0
									CHANNELS 3 Zrotation Yrotation Xrotation
									JOINT LeftHandIndex1
									{
										OFFSET 0.57248 -0.00000 -0.00000
										CHANNELS 3 Zrotation Yrotation Xrotation
										End Site
										{
											OFFSET 0.46154 -0.00000 -0.00000
										}
									}
								}
								JOINT LThumb
								{
									OFFSET 0 0 0
									CHANNELS 3 Zrotation Yrotation Xrotation
									End Site
									{
										OFFSET 0.46859 -0.00000 0.46859
									}
								}
							}
						}
					}
				}
				JOINT RightShoulder
				{
					OFFSET 0 0 0
					CHANNELS 3 Zrotation Yrotation Xrotation
					JOINT RightArm
					{
						OFFSET -3.41766 0.93592 -0.10019
						CHANNELS 3 Zrotation Yrotation Xrotation
						JOINT RightForeArm
						{
							OFFSET -5.33589 -0.00000 -0.00000
							CHANNELS 3 Zrotation Yrotation Xrotation
							JOINT RightHand
							{
								OFFSET -3.64134 -0.00000 -0.00000
								CHANNELS 3 Zrotation Yrotation Xrotation
								JOINT RightFingerBase
								{
									OFFSET 0 0 0
									CHANNELS 3 Zrotation Yrotation Xrotation
									JOINT RightHandIndex1
									{
										OFFSET -0.73481 -0.00000 -0.00000
										CHANNELS 3 Zrotation Yrotation Xrotation
										End Site
										{
											OFFSET -0.59242 -0.00000 -0.00000
										}
									}
								}
								JOINT RThumb
								{
									OFFSET 0 0 0
									CHANNELS 3 Zrotation Yrotation Xrotation
									End Site
									{
										OFFSET -0.60147 -0.00000 0.60147
									}
								}
							}
						}
					}
				}
			}
		}
	}
}
MOTION
Frames: 5
Frame Time: .0083333
-5.1793 18.0480 -0.1833 10.9785 19.5669 23.0346 0.0000 0.0000 0.0000 -16.7273 -10.7810 -16.5023 1.5385 7.8302 22.1994 0.0529 4.7933 -8.4315 1.2357 -7.0491 -19.8610 0.0000 0.0000 0.0000 4.5268 6.0715 -39.6456 -3.3750 -11.2787 33.2257 -0.5884 -6.8762 -18.6045 -0.1240 -2.2705 6.2537 0.9874 -2.0771 13.2127 6.7620 -2.3599 6.3699 6.8897 -1.2191 -0.4290 -9.0187 -7.2659 -12.1397 7.4961 -10.2898 29.4787 2.9021 -4.5548 12.6873 0.0000 0.0000 0.0000 -94.4437 -32.8719 94.4541 55.8727 -55.1059 -30.9306 -0.0000 0.0000 -75.7087 27.3959 54.4430 22.8614 -7.1250 0.0000 -0.0000 -73.8375 82.1706 -66.1098 0.0000 0.0000 0.0000 61.3187 44.4048 -9.8085 -18.7117 29.0589 -4.8900 0.0000 -0.0000 -24.4184 -39.3825 -19.6685 15.4452 7.1250 -0.0000 -0.0000 -11.9022 -54.4025 2.7796
-5.1579 18.0647 -0.2034 11.0920 19.8304 23.0085 0.0000 0.0000 0.0000 -16.5409 -10.9113 -16.7755 1.5647 7.8936 22.3913 0.0414 5.3087 -8.7505 1.4428 -7.5936 -21.4864 0.0000 0.0000 0.0000 4.4042 5.8900 -39.4558 -3.3349 -11.2184 33.0199 -0.5653 -7.1795 -18.6049 -0.1123 -2.1606 5.9497 1.0271 -1.9422 13.0653 6.8370 -2.1835 6.3717 6.9181 -1.1316 -0.3660 -9.0975 -7.4194 -11.9038 7.4334 -10.4730 29.3594 2.8673 -4.6555 12.6100 -0.0000 -0.0000 0.0000 -93.9038 -32.3557 93.4080 55.0225 -54.8307 -30.2344 -0.0000 0.0000 -76.3311 27.6757 55.9632 23.4907 -7.1250 0.0000 -0.0000 -85.2138 82.1492 -77.2715 -0.0000 -0.0000 0.0000 62.5068 44.6311 -8.0281 -18.6802 29.0193 -4.8747 0.0000 -0.0000 -25.2958 -39.1387 -19.8081 15.4174 7.1250 -0.0000 -0.0000 -11.6287 -54.5119 2.7456
-5.1385 18.0705 -0.2319 11.1661 20.1747 23.0363 0.0000 0.0000 0.0000 -16.2673 -10.9978 -17.1118 1.5759 7.9205 22.4729 0.0094 5.7549 -8.4759 1.5529 -7.8651 -22.3052 0.0000 0.0000 0.0000 4.3011 5.7505 -39.3618 -3.3029 -11.1700 32.8554 -0.5467 -7.5018 -18.6767 -0.1093 -2.1318 5.8701 1.1302 -1.8194 12.9535 6.9526 -2.0095 6.3223 6.9575 -1.0426 -0.3765 -9.2358 -7.5891 -11.6770 7.4197 -10.6834 29.2902 2.8579 -4.7675 12.5657 0.0000 0.0000 0.0000 -93.3896 -31.7345 92.2915 54.3189 -54.5955 -29.6600 -0.0000 0.0000 -77.0786 29.3780 55.8417 24.9784 -7.1250 0.0000 -0.0000 -86.7930 82.7875 -79.5088 0.0000 0.0000 0.0000 63.7269 44.8052 -6.3130 -18.6603 28.9944 -4.8651 0.0000 -0.0000 -25.9960 -38.7103 -20.1148 15.4092 7.1250 -0.0000 -0.0000 -11.1463 -54.7760 2.7016
-5.1198 18.0685 -0.2611 11.2348 20.6653 22.9473 0.0000 0.0000 0.0000 -15.9555 -11.1730 -17.2087 1.5713 7.9094 22.4391 -0.0565 6.6122 -7.8342 1.3692 -7.4057 -20.9229 0.0000 0.0000 0.0000 4.2398 5.5543 -39.1359 -3.2827 -11.1393 32.7511 -0.5369 -7.8234 -18.8508 -0.1035 -2.0743 5.7109 1.3011 -1.7056 12.9579 7.0953 -1.8347 6.3466 6.9915 -0.9524 -0.3727 -9.4096 -7.8211 -11.6320 7.4889 -10.9858 29.2027 2.8647 -4.9091 12.5707 -0.0000 0.0000 0.0000 -93.0035 -31.2618 91.1254 53.5210 -54.3205 -29.0108 -0.0000 0.0000 -77.2780 31.2148 55.5562 26.5529 -7.1250 0.0000 -0.0000 -87.8571 83.5096 -81.3155 -0.0000 0.0000 0.0000 64.7430 44.9809 -4.7099 -18.5261 28.8256 -4.8002 0.0000 -0.0000 -26.3750 -37.7156 -20.3239 15.0345 7.1250 -0.0000 -0.0000 -10.0127 -54.7901 2.4259
-5.0943 18.0759 -0.2817 11.4020 21.0954 22.8352 0.0000 0.0000 0.0000 -15.8235 -11.3240 -17.2132 1.5614 7.8855 22.3669 -0.1106 7.4427 -7.5697 1.0116 -6.3992 -17.9473 0.0000 0.0000 0.0000 4.0729 5.2807 -38.8338 -3.2740 -11.1260 32.7059 -0.5345 -8.0294 -19.0081 -0.1071 -2.1099 5.8093 1.3712 -1.5822 12.8868 7.2170 -1.6639 6.3589 7.0584 -0.8667 -0.3380 -9.5366 -8.0441 -11.4868 7.4242 -11.2566 29.1696 2.8217 -5.0490 12.5617 0.0000 0.0000 0.0000 -92.6238 -30.6488 90.0482 52.6631 -54.0147 -28.3153 -0.0000 0.0000 -77.7886 33.5050 53.7522 28.0973 -7.1250 0.0000 -0.0000 -75.2430 84.7001 -70.0372 0.0000 0.0000 0.0000 65.7756 44.8212 -2.7952 -18.4763 28.7627 -4.7762 0.0000 -0.0000 -26.8509 -36.4014 -20.3252 14.3647 7.1250 -0.0000 -0.0000 -8.5311 -54.4899 2.0002
